<svg width="23" height="23" viewBox="0 0 23 23" fill="none" xmlns="http://www.w3.org/2000/svg">
<path d="M5.874 23H1.255C0.862333 23 0.573 22.9173 0.387 22.752C0.221667 22.566 0.139 22.2767 0.139 21.884V1.796C0.139 1.40333 0.221667 1.12433 0.387 0.958999C0.573 0.772999 0.862333 0.679999 1.255 0.679999H6.246C6.57667 0.679999 6.84533 0.752332 7.052 0.896998C7.27933 1.04167 7.486 1.27933 7.672 1.61L10.462 6.663C10.5653 6.849 10.648 6.98333 10.71 7.066C10.7927 7.14867 10.896 7.19 11.02 7.19H11.299C11.423 7.19 11.516 7.14867 11.578 7.066C11.6607 6.98333 11.7537 6.849 11.857 6.663L14.616 1.61C14.802 1.27933 14.9983 1.04167 15.205 0.896998C15.4323 0.752332 15.7113 0.679999 16.042 0.679999H21.064C21.4567 0.679999 21.7357 0.772999 21.901 0.958999C22.087 1.12433 22.18 1.40333 22.18 1.796V21.884C22.18 22.2767 22.087 22.566 21.901 22.752C21.7357 22.9173 21.4567 23 21.064 23H16.29C15.8973 23 15.608 22.9173 15.422 22.752C15.2567 22.566 15.174 22.2767 15.174 21.884V10.972L13.345 14.351C13.159 14.7023 12.9317 14.9607 12.663 15.126C12.415 15.2707 12.0947 15.343 11.702 15.343H10.462C10.0693 15.343 9.73867 15.2707 9.47 15.126C9.222 14.9607 9.005 14.7023 8.819 14.351L6.99 10.972V21.884C6.99 22.2767 6.897 22.566 6.711 22.752C6.54567 22.9173 6.26667 23 5.874 23Z" fill="#CBACF9"/>
</svg>
